<svg width="158" height="158" viewBox="0 0 158 158" fill="none" xmlns="http://www.w3.org/2000/svg">
<g filter="url(#filter0_d_141_14)">
<path d="M71.3542 109.839C70.7952 109.841 70.2394 109.754 69.7077 109.581C68.7518 109.272 67.9021 108.7 67.2559 107.93C66.6097 107.161 66.1929 106.225 66.0533 105.23C65.3338 100.21 59.3769 94.3667 53.7983 93.2322C52.877 93.0416 52.0223 92.6118 51.32 91.9858C50.6177 91.3599 50.0928 90.5599 49.7979 89.6666C49.5031 88.7732 49.4488 87.8179 49.6405 86.8969C49.8323 85.9759 50.2633 85.1216 50.8901 84.4201L121.532 5.7375C121.596 5.66387 121.663 5.59359 121.73 5.52665C125.279 1.98754 130.086 0.00012207 135.098 0.00012207C140.109 0.00012207 144.917 1.98754 148.465 5.52665C152.003 9.0667 153.993 13.8646 154 18.8693C154.007 23.874 152.03 28.6774 148.502 32.2272L75.2128 108.199C74.713 108.718 74.1137 109.13 73.4507 109.412C72.7877 109.694 72.0746 109.839 71.3542 109.839ZM33.4512 150C22.6954 150 11.5481 144.347 5.05579 135.609C4.46407 134.812 4.1054 133.867 4.01982 132.878C3.93425 131.889 4.12514 130.896 4.57118 130.009C5.01722 129.123 5.70086 128.378 6.54579 127.857C7.39072 127.337 8.36369 127.061 9.3561 127.061C11.1432 127.061 16.0492 125.431 16.0492 120.177C16.0492 107.101 26.5574 96.4618 39.475 96.4618C52.3927 96.4618 62.9009 107.101 62.9009 120.177C62.9009 136.616 49.6887 150 33.4512 150Z" fill="url(#paint0_linear_141_14)"/>
</g>
<path d="M76.5876 79.1481C76.8647 79.4065 77.0718 79.6771 77.2088 79.9597C77.3458 80.2424 77.4264 80.5311 77.4505 80.826C77.4773 81.1181 77.4558 81.4131 77.3861 81.7113C77.3163 82.0095 77.2133 82.3033 77.0769 82.5927C76.9403 82.8766 76.7786 83.1531 76.5918 83.4222C76.4021 83.6886 76.2021 83.9375 75.9918 84.1687L77.9888 86.0308L76.1266 88.0278C75.4724 87.4177 74.8224 86.8089 74.1765 86.2013C73.5307 85.5937 72.8805 84.9793 72.2259 84.3582C71.8826 84.0275 71.5354 83.701 71.1842 83.3789C70.833 83.0567 70.4883 82.7219 70.15 82.3744C70.3825 81.9075 70.6421 81.4659 70.9288 81.0496C71.2155 80.6333 71.54 80.2309 71.9023 79.8424C72.1075 79.6224 72.3312 79.4197 72.5734 79.2344C72.8128 79.0464 73.0644 78.8884 73.328 78.7603C73.5943 78.6294 73.8659 78.5329 74.1429 78.4707C74.4197 78.403 74.6966 78.3809 74.9738 78.4043C75.251 78.4278 75.5258 78.4998 75.7981 78.6202C76.0702 78.735 76.3334 78.911 76.5876 79.1481ZM74.9591 81.1866C74.7734 81.0135 74.5758 80.9361 74.3664 80.9544C74.1568 80.9673 73.9681 81.0637 73.8003 81.2437C73.7443 81.3037 73.6914 81.3719 73.6416 81.4482C73.5915 81.5191 73.547 81.5897 73.508 81.6602L74.7114 82.8785C74.7544 82.8438 74.7932 82.8079 74.8278 82.7707C74.8625 82.7336 74.8984 82.695 74.9357 82.655C75.0316 82.5522 75.1064 82.4377 75.16 82.3114C75.2163 82.1823 75.2477 82.0513 75.2541 81.9184C75.2577 81.7829 75.2366 81.6537 75.1908 81.5309C75.1449 81.4026 75.0676 81.2879 74.9591 81.1866ZM76.9821 74.8933L82.539 80.6359L80.9469 82.5322L74.9762 77.2849L76.9821 74.8933ZM82.3422 69.5405L83.5177 73.7613L87.367 74.5306L86.2537 76.8413L83.7918 76.1479L84.7016 78.6948L82.3068 79.9226L81.2919 76.0279L77.5066 75.19L78.8654 72.7878L81.072 73.5316L80.2161 71.3394L82.3422 69.5405ZM88.9441 67.2205C89.1926 67.4523 89.4252 67.7012 89.6418 67.9673C89.2177 68.4851 88.8162 69.0187 88.4374 69.5681C88.0557 70.1148 87.6741 70.6616 87.2924 71.2083C87.5674 71.3259 87.8395 71.3634 88.1089 71.3208C88.3809 71.2754 88.6195 71.1426 88.8246 70.9227C88.9312 70.8084 89.0257 70.6641 89.108 70.4899C89.193 70.3128 89.2667 70.1278 89.3291 69.935C89.3886 69.7394 89.4385 69.5456 89.4788 69.3535C89.519 69.1614 89.5505 68.9931 89.5731 68.8485L91.3268 70.8685C91.3086 71.0598 91.2682 71.2491 91.2056 71.4365C91.1458 71.621 91.0691 71.8006 90.9757 71.9752C90.8823 72.1498 90.7776 72.3165 90.6615 72.4754C90.5455 72.6342 90.4235 72.7822 90.2956 72.9193C90.0319 73.2021 89.7522 73.4247 89.4566 73.587C89.161 73.7494 88.8554 73.8623 88.5398 73.9258C88.224 73.9838 87.9052 73.9964 87.5835 73.9634C87.2617 73.9304 86.9455 73.8571 86.6347 73.7436C86.324 73.6301 86.0217 73.4817 85.7278 73.2985C85.434 73.1153 85.16 72.9052 84.9057 72.6681C84.64 72.4203 84.397 72.1483 84.1766 71.8519C83.9562 71.5556 83.7684 71.2443 83.6133 70.9181C83.4609 70.589 83.3496 70.2529 83.2796 69.9099C83.2094 69.5613 83.189 69.2138 83.2183 68.8673C83.2477 68.5208 83.3353 68.1806 83.4812 67.8466C83.6297 67.5097 83.8465 67.1885 84.1316 66.8828C84.3687 66.6285 84.6202 66.4304 84.8861 66.2885C85.1518 66.141 85.4234 66.0445 85.7009 65.9988C85.9783 65.9477 86.2586 65.9421 86.5419 65.9819C86.8279 66.0189 87.1097 66.0947 87.3873 66.2094C87.6647 66.3186 87.935 66.4611 88.1982 66.6371C88.4612 66.8076 88.7098 67.0021 88.9441 67.2205ZM87.1228 68.7268C87.0428 68.6522 86.9534 68.5849 86.8546 68.5248C86.7529 68.462 86.6491 68.4186 86.5433 68.3947C86.4401 68.3679 86.3377 68.3659 86.2363 68.3888C86.132 68.409 86.0358 68.4663 85.9479 68.5606C85.8414 68.6748 85.7782 68.8056 85.7585 68.9527C85.7386 69.0944 85.7464 69.2406 85.7821 69.3914C85.8149 69.5395 85.8669 69.6841 85.9382 69.8254C86.0095 69.9666 86.0815 70.0898 86.1543 70.1951L87.2171 68.8147L87.1228 68.7268ZM93.9037 64.2904L95.6385 66.2446L92.5567 70.1166L86.5652 64.2731L88.6431 62.0447L92.2813 66.0302L93.9037 64.2904ZM102.632 58.7454L100.924 61.1267L99.7157 60.4807L98.8045 61.4577L99.5732 62.5751L97.3209 64.5608L93.2034 57.5324L95.3052 55.0379L102.632 58.7454ZM98.2605 59.4121L96.4655 58.3472L97.6611 60.0549L98.2605 59.4121ZM103.637 50.1245C103.859 50.3323 104.044 50.5415 104.189 50.752C104.334 50.9569 104.444 51.1714 104.518 51.3955C104.593 51.6195 104.633 51.8572 104.639 52.1085C104.645 52.3598 104.62 52.6329 104.564 52.9278L107.332 53.6023L105.91 55.8823L103.47 54.8399L102.991 55.3873L104.702 57.1268L102.984 58.9694C102.346 58.3477 101.709 57.7301 101.074 57.1166C100.442 56.5003 99.8079 55.8798 99.1725 55.2553C98.8493 54.9432 98.5289 54.6338 98.2114 54.327C97.8939 54.0203 97.5789 53.7052 97.2664 53.3816C97.3786 53.1124 97.501 52.858 97.6336 52.6184C97.7661 52.3789 97.9102 52.15 98.0656 51.9318C98.2209 51.708 98.3874 51.4921 98.5654 51.2841C98.7431 51.0707 98.9305 50.8582 99.1276 50.6468C99.4314 50.3211 99.7701 50.0495 100.144 49.8319C100.518 49.6088 100.904 49.4641 101.302 49.3976C101.7 49.3312 102.099 49.3532 102.498 49.4636C102.9 49.5712 103.279 49.7915 103.637 50.1245ZM101.983 52.1722C101.863 52.0603 101.737 51.9749 101.606 51.9159C101.476 51.8541 101.345 51.8228 101.213 51.8219C101.08 51.8154 100.948 51.8422 100.817 51.902C100.687 51.9563 100.561 52.0477 100.441 52.1763C100.388 52.2334 100.34 52.2931 100.298 52.3554C100.253 52.415 100.214 52.4772 100.181 52.5419L101.711 54.0971L101.807 53.9942C101.921 53.8714 102.021 53.7324 102.107 53.5774C102.196 53.4196 102.254 53.26 102.281 53.0987C102.311 52.9346 102.304 52.7732 102.26 52.6144C102.218 52.4528 102.126 52.3054 101.983 52.1722ZM106.237 43.5042L108.014 45.2414L106.874 46.5663L110.707 50.429L109.115 52.3253L104.987 48.7798L103.864 50.1207L101.89 48.1831L106.237 43.5042ZM114.035 34.729L119.958 40.9895L118.222 43.0235L114.921 39.9134L116.772 43.2897L116.069 44.0439L113.046 42.4912L115.815 45.0892L114.029 47.1249L108.186 41.5166L110.155 39.2341L113.807 41.0053L111.885 37.0345L114.035 34.729ZM125.178 34.5679L123.47 36.9491L122.262 36.3031L121.35 37.2802L122.119 38.3976L119.867 40.3832L115.749 33.3549L117.851 30.8604L125.178 34.5679ZM120.806 35.2346L119.011 34.1697L120.207 35.8774L120.806 35.2346ZM125.005 24.392L125.492 28.3881L130.063 29.3975L128.56 31.7136L125.58 31.3699L127.196 33.005L125.602 34.8516L119.593 28.992L121.567 27.099L123.189 28.8997L122.556 25.9866L125.005 24.392ZM131.239 21.8652C131.487 22.0969 131.72 22.3458 131.936 22.6119C131.512 23.1297 131.111 23.6633 130.732 24.2128C130.35 24.7595 129.969 25.3062 129.587 25.853C129.862 25.9705 130.134 26.008 130.403 25.9654C130.675 25.92 130.914 25.7873 131.119 25.5673C131.226 25.453 131.32 25.3088 131.403 25.1346C131.488 24.9575 131.561 24.7725 131.624 24.5796C131.683 24.3841 131.733 24.1902 131.773 23.9981C131.814 23.806 131.845 23.6377 131.868 23.4932L133.621 25.5131C133.603 25.7044 133.563 25.8938 133.5 26.0812C133.44 26.2657 133.364 26.4452 133.27 26.6198C133.177 26.7945 133.072 26.9612 132.956 27.12C132.84 27.2788 132.718 27.4268 132.59 27.5639C132.326 27.8468 132.047 28.0693 131.751 28.2317C131.456 28.394 131.15 28.5069 130.834 28.5705C130.519 28.6285 130.2 28.641 129.878 28.608C129.556 28.575 129.24 28.5018 128.929 28.3883C128.619 28.2747 128.316 28.1264 128.022 27.9432C127.729 27.76 127.455 27.5498 127.2 27.3127C126.935 27.065 126.692 26.7929 126.471 26.4966C126.251 26.2003 126.063 25.889 125.908 25.5627C125.755 25.2336 125.644 24.8976 125.574 24.5545C125.504 24.206 125.484 23.8585 125.513 23.512C125.542 23.1655 125.63 22.8252 125.776 22.4912C125.924 22.1544 126.141 21.8331 126.426 21.5274C126.663 21.2732 126.915 21.0751 127.181 20.9331C127.446 20.7857 127.718 20.6891 127.995 20.6435C128.273 20.5923 128.553 20.5867 128.836 20.6266C129.122 20.6636 129.404 20.7394 129.682 20.8541C129.959 20.9632 130.23 21.1058 130.493 21.2818C130.756 21.4522 131.004 21.6467 131.239 21.8652ZM129.417 23.3715C129.337 23.2969 129.248 23.2295 129.149 23.1694C129.047 23.1066 128.944 23.0633 128.838 23.0393C128.735 23.0125 128.632 23.0106 128.531 23.0335C128.427 23.0537 128.33 23.1109 128.242 23.2052C128.136 23.3195 128.073 23.4502 128.053 23.5974C128.033 23.739 128.041 23.8852 128.077 24.036C128.109 24.1841 128.161 24.3288 128.233 24.47C128.304 24.6112 128.376 24.7345 128.449 24.8397L129.512 23.4594L129.417 23.3715ZM135.517 15.9366C135.74 16.1444 135.924 16.3535 136.07 16.564C136.215 16.769 136.325 16.9835 136.399 17.2076C136.473 17.4316 136.513 17.6693 136.519 17.9206C136.525 18.1719 136.5 18.445 136.444 18.7399L139.212 19.4143L137.791 21.6944L135.35 20.652L134.872 21.1993L136.583 22.9388L134.864 24.7815C134.226 24.1598 133.59 23.5422 132.955 22.9287C132.322 22.3124 131.689 21.6919 131.053 21.0674C130.73 20.7553 130.41 20.4459 130.092 20.1391C129.775 19.8324 129.46 19.5172 129.147 19.1937C129.259 18.9245 129.382 18.6701 129.514 18.4305C129.647 18.191 129.791 17.9621 129.946 17.7438C130.102 17.5201 130.268 17.3042 130.446 17.0962C130.624 16.8827 130.811 16.6703 131.008 16.4589C131.312 16.1332 131.651 15.8616 132.025 15.644C132.398 15.4209 132.784 15.2761 133.183 15.2097C133.581 15.1433 133.98 15.1653 134.379 15.2757C134.781 15.3833 135.16 15.6036 135.517 15.9366ZM133.864 17.9843C133.744 17.8724 133.618 17.787 133.486 17.728C133.357 17.6662 133.226 17.6348 133.093 17.6339C132.96 17.6275 132.829 17.6542 132.698 17.7141C132.567 17.7684 132.442 17.8598 132.322 17.9884C132.269 18.0455 132.221 18.1052 132.179 18.1675C132.134 18.2271 132.095 18.2893 132.061 18.354L133.591 19.9091L133.687 19.8063C133.802 19.6834 133.902 19.5445 133.988 19.3895C134.076 19.2316 134.134 19.0721 134.162 18.9108C134.192 18.7467 134.185 18.5853 134.141 18.4265C134.099 18.2649 134.007 18.1175 133.864 17.9843Z" fill="black" fill-opacity="0.43" style="mix-blend-mode:darken"/>
<defs>
<filter id="filter0_d_141_14" x="-0.00012207" y="0.00012207" width="158" height="158" filterUnits="userSpaceOnUse" color-interpolation-filters="sRGB">
<feFlood flood-opacity="0" result="BackgroundImageFix"/>
<feColorMatrix in="SourceAlpha" type="matrix" values="0 0 0 0 0 0 0 0 0 0 0 0 0 0 0 0 0 0 127 0" result="hardAlpha"/>
<feOffset dy="4"/>
<feGaussianBlur stdDeviation="2"/>
<feComposite in2="hardAlpha" operator="out"/>
<feColorMatrix type="matrix" values="0 0 0 0 0 0 0 0 0 0 0 0 0 0 0 0 0 0 0.25 0"/>
<feBlend mode="normal" in2="BackgroundImageFix" result="effect1_dropShadow_141_14"/>
<feBlend mode="normal" in="SourceGraphic" in2="effect1_dropShadow_141_14" result="shape"/>
</filter>
<linearGradient id="paint0_linear_141_14" x1="20.6666" y1="140" x2="114" y2="40.0001" gradientUnits="userSpaceOnUse">
<stop offset="0.201565" stop-color="#00FFD1"/>
<stop offset="0.470058" stop-color="#96FFF9"/>
<stop offset="1" stop-color="#67F0C7"/>
</linearGradient>
</defs>
</svg>
