<svg width="100" height="100" viewBox="0 0 100 100" fill="none" xmlns="http://www.w3.org/2000/svg">
<g filter="url(#filter0_d_28_13)">
<path d="M47.4515 61.6129C47.2651 61.6137 47.0798 61.5847 46.9026 61.527C46.584 61.4239 46.3007 61.2332 46.0853 60.9768C45.8699 60.7203 45.731 60.4084 45.6845 60.0767C45.4446 58.4034 43.459 56.4555 41.5995 56.0773C41.2924 56.0138 41.0075 55.8706 40.7734 55.6619C40.5393 55.4533 40.3643 55.1866 40.266 54.8888C40.1677 54.591 40.1496 54.2726 40.2136 53.9656C40.2775 53.6586 40.4211 53.3738 40.6301 53.14L64.1775 26.9125C64.1987 26.8879 64.221 26.8645 64.2433 26.8422C65.4262 25.6625 67.0287 25 68.6992 25C70.3698 25 71.9722 25.6625 73.1552 26.8422C74.3343 28.0222 74.9977 29.6215 75 31.2897C75.0023 32.958 74.3433 34.5591 73.1674 35.7424L48.7376 61.0663C48.571 61.2392 48.3713 61.3768 48.1503 61.4707C47.9293 61.5646 47.6916 61.613 47.4515 61.6129ZM34.8171 75C31.2319 75 27.5161 73.1158 25.352 70.203C25.1547 69.9374 25.0352 69.6222 25.0066 69.2926C24.9781 68.963 25.0418 68.632 25.1904 68.3364C25.3391 68.0409 25.567 67.7925 25.8486 67.619C26.1303 67.4455 26.4546 67.3536 26.7854 67.3537C27.3811 67.3537 29.0164 66.8105 29.0164 65.059C29.0164 60.7004 32.5192 57.1539 36.825 57.1539C41.1309 57.1539 44.6337 60.7004 44.6337 65.059C44.6337 70.5388 40.2296 75 34.8171 75Z" fill="url(#paint0_linear_28_13)"/>
</g>
<g filter="url(#filter1_d_28_13)">
<path d="M11.1632 57V42.4545H16.6177C17.7351 42.4545 18.6726 42.6629 19.4302 43.0795C20.1925 43.4962 20.7678 44.0691 21.1561 44.7983C21.5491 45.5227 21.7456 46.3466 21.7456 47.2699C21.7456 48.2027 21.5491 49.0312 21.1561 49.7557C20.7631 50.4801 20.1831 51.0507 19.416 51.4673C18.649 51.8793 17.7044 52.0852 16.5822 52.0852H12.9672V49.919H16.2271C16.8805 49.919 17.4155 49.8054 17.8322 49.5781C18.2489 49.3509 18.5566 49.0384 18.7555 48.6406C18.9591 48.2429 19.0609 47.786 19.0609 47.2699C19.0609 46.7538 18.9591 46.2992 18.7555 45.9062C18.5566 45.5133 18.2465 45.2079 17.8251 44.9901C17.4084 44.7675 16.871 44.6562 16.2129 44.6562H13.7981V57H11.1632ZM23.9206 57V46.0909H26.4917V57H23.9206ZM25.2132 44.5426C24.806 44.5426 24.4557 44.4077 24.1621 44.1378C23.8685 43.8632 23.7218 43.5341 23.7218 43.1506C23.7218 42.7623 23.8685 42.4332 24.1621 42.1634C24.4557 41.8887 24.806 41.7514 25.2132 41.7514C25.6252 41.7514 25.9756 41.8887 26.2644 42.1634C26.5579 42.4332 26.7047 42.7623 26.7047 43.1506C26.7047 43.5341 26.5579 43.8632 26.2644 44.1378C25.9756 44.4077 25.6252 44.5426 25.2132 44.5426ZM31.2377 46.0909L33.4395 50.1179L35.6767 46.0909H38.3968L35.1085 51.5455L38.4537 57H35.7477L33.4395 53.0724L31.1525 57H28.4252L31.7491 51.5455L28.5105 46.0909H31.2377ZM44.8049 57.2131C43.7111 57.2131 42.7665 56.9858 41.9711 56.5312C41.1803 56.072 40.5719 55.4233 40.1458 54.5852C39.7196 53.7424 39.5066 52.7505 39.5066 51.6094C39.5066 50.4872 39.7196 49.5024 40.1458 48.6548C40.5766 47.8026 41.178 47.1397 41.9498 46.6662C42.7215 46.188 43.6283 45.9489 44.6699 45.9489C45.3423 45.9489 45.9767 46.0578 46.5733 46.2756C47.1747 46.4886 47.705 46.8201 48.1642 47.2699C48.6283 47.7197 48.9928 48.2926 49.258 48.9886C49.5231 49.6799 49.6557 50.5038 49.6557 51.4602V52.2486H40.714V50.5156H47.1912C47.1865 50.0232 47.08 49.5852 46.8716 49.2017C46.6633 48.8134 46.3721 48.508 45.998 48.2855C45.6287 48.063 45.1979 47.9517 44.7054 47.9517C44.1799 47.9517 43.7182 48.0795 43.3205 48.3352C42.9228 48.5862 42.6126 48.9176 42.3901 49.3295C42.1723 49.7367 42.061 50.1842 42.0563 50.6719V52.1847C42.0563 52.8191 42.1723 53.3636 42.4043 53.8182C42.6363 54.268 42.9606 54.6136 43.3773 54.8551C43.794 55.0919 44.2817 55.2102 44.8404 55.2102C45.2144 55.2102 45.553 55.1581 45.856 55.054C46.159 54.9451 46.4218 54.7865 46.6444 54.5781C46.8669 54.3698 47.035 54.1117 47.1486 53.804L49.5492 54.0739C49.3977 54.7083 49.1088 55.2623 48.6827 55.7358C48.2613 56.2045 47.7215 56.5691 47.0634 56.8295C46.4052 57.0852 45.6524 57.2131 44.8049 57.2131ZM54.4018 42.4545V57H51.8308V42.4545H54.4018ZM63.9881 57H61.1756L66.2963 42.4545H69.5492L74.677 57H71.8645L67.9796 45.4375H67.8659L63.9881 57ZM64.0804 51.2969H71.7509V53.4134H64.0804V51.2969ZM76.4792 57V46.0909H78.9721V47.9091H79.0858C79.2846 47.2794 79.6255 46.794 80.1085 46.4531C80.5962 46.1075 81.1525 45.9347 81.7775 45.9347C81.9196 45.9347 82.0782 45.9418 82.2534 45.956C82.4333 45.9654 82.5824 45.982 82.7008 46.0057V48.3707C82.5919 48.3329 82.4191 48.2997 82.1824 48.2713C81.9503 48.2382 81.7254 48.2216 81.5076 48.2216C81.0389 48.2216 80.6175 48.3234 80.2434 48.527C79.8741 48.7259 79.5829 49.0028 79.3699 49.358C79.1568 49.7131 79.0502 50.1226 79.0502 50.5866V57H76.4792ZM90.4423 46.0909V48.0795H84.171V46.0909H90.4423ZM85.7193 43.4773H88.2903V53.7188C88.2903 54.0644 88.3424 54.3295 88.4466 54.5142C88.5555 54.6941 88.6975 54.8172 88.8727 54.8835C89.0479 54.9498 89.242 54.983 89.4551 54.983C89.6161 54.983 89.7628 54.9711 89.8954 54.9474C90.0327 54.9238 90.1369 54.9025 90.2079 54.8835L90.6412 56.8935C90.5038 56.9408 90.3074 56.9929 90.0517 57.0497C89.8007 57.1065 89.493 57.1397 89.1284 57.1491C88.4844 57.1681 87.9044 57.071 87.3883 56.858C86.8722 56.6402 86.4627 56.304 86.1596 55.8494C85.8613 55.3949 85.7145 54.8267 85.7193 54.1449V43.4773Z" fill="white" style="mix-blend-mode:lighten" shape-rendering="crispEdges"/>
</g>
<defs>
<filter id="filter0_d_28_13" x="21" y="25" width="58" height="58" filterUnits="userSpaceOnUse" color-interpolation-filters="sRGB">
<feFlood flood-opacity="0" result="BackgroundImageFix"/>
<feColorMatrix in="SourceAlpha" type="matrix" values="0 0 0 0 0 0 0 0 0 0 0 0 0 0 0 0 0 0 127 0" result="hardAlpha"/>
<feOffset dy="4"/>
<feGaussianBlur stdDeviation="2"/>
<feComposite in2="hardAlpha" operator="out"/>
<feColorMatrix type="matrix" values="0 0 0 0 0 0 0 0 0 0 0 0 0 0 0 0 0 0 0.25 0"/>
<feBlend mode="normal" in2="BackgroundImageFix" result="effect1_dropShadow_28_13"/>
<feBlend mode="normal" in="SourceGraphic" in2="effect1_dropShadow_28_13" result="shape"/>
</filter>
<filter id="filter1_d_28_13" x="5.16321" y="35.7514" width="93.4779" height="29.4617" filterUnits="userSpaceOnUse" color-interpolation-filters="sRGB">
<feFlood flood-opacity="0" result="BackgroundImageFix"/>
<feColorMatrix in="SourceAlpha" type="matrix" values="0 0 0 0 0 0 0 0 0 0 0 0 0 0 0 0 0 0 127 0" result="hardAlpha"/>
<feOffset dx="1" dy="1"/>
<feGaussianBlur stdDeviation="3.5"/>
<feComposite in2="hardAlpha" operator="out"/>
<feColorMatrix type="matrix" values="0 0 0 0 0.203922 0 0 0 0 0.827451 0 0 0 0 0.6 0 0 0 1 0"/>
<feBlend mode="normal" in2="BackgroundImageFix" result="effect1_dropShadow_28_13"/>
<feBlend mode="normal" in="SourceGraphic" in2="effect1_dropShadow_28_13" result="shape"/>
</filter>
<linearGradient id="paint0_linear_28_13" x1="4" y1="32" x2="50" y2="75" gradientUnits="userSpaceOnUse">
<stop stop-color="#00FFD1"/>
<stop offset="1" stop-color="#4D9A70"/>
</linearGradient>
</defs>
</svg>
