<svg width="103" height="100" viewBox="0 0 103 100" fill="none" xmlns="http://www.w3.org/2000/svg">
<g filter="url(#filter0_d_28_13)">
<path d="M44.4126 67.9032C44.0772 67.9046 43.7437 67.8524 43.4247 67.7486C42.8511 67.5631 42.3413 67.2198 41.9536 66.7582C41.5659 66.2966 41.3158 65.7352 41.2321 65.1381C40.8003 62.126 37.2262 58.62 33.879 57.9392C33.3263 57.8249 32.8134 57.567 32.3921 57.1914C31.9707 56.8158 31.6557 56.3359 31.4788 55.7999C31.3019 55.2638 31.2694 54.6907 31.3844 54.1381C31.4994 53.5854 31.758 53.0729 32.1341 52.652L74.5195 5.44243C74.5576 5.39825 74.5978 5.35608 74.638 5.31592C76.7672 3.19245 79.6516 2 82.6586 2C85.6657 2 88.55 3.19245 90.6793 5.31592C92.8017 7.43995 93.9958 10.3187 94 13.3215C94.0041 16.3243 92.818 19.2064 90.7014 21.3363L46.7278 66.9193C46.4279 67.2306 46.0683 67.4782 45.6705 67.6473C45.2727 67.8164 44.8448 67.9034 44.4126 67.9032ZM21.6708 92C15.2173 92 8.52893 88.6084 4.63355 83.3653C4.27851 82.8873 4.06331 82.3199 4.01197 81.7267C3.96062 81.1334 4.07516 80.5375 4.34278 80.0056C4.6104 79.4736 5.02059 79.0265 5.52755 78.7142C6.0345 78.4018 6.61829 78.2365 7.21373 78.2367C8.28597 78.2367 11.2296 77.2588 11.2296 74.1061C11.2296 66.2606 17.5345 59.877 25.2851 59.877C33.0357 59.877 39.3406 66.2606 39.3406 74.1061C39.3406 83.9698 31.4133 92 21.6708 92Z" fill="url(#paint0_linear_28_13)"/>
</g>
<g filter="url(#filter1_d_28_13)">
<path d="M10.1632 54V39.4545H15.6177C16.7351 39.4545 17.6726 39.6629 18.4302 40.0795C19.1925 40.4962 19.7678 41.0691 20.1561 41.7983C20.5491 42.5227 20.7456 43.3466 20.7456 44.2699C20.7456 45.2027 20.5491 46.0312 20.1561 46.7557C19.7631 47.4801 19.1831 48.0507 18.416 48.4673C17.649 48.8793 16.7044 49.0852 15.5822 49.0852H11.9672V46.919H15.2271C15.8805 46.919 16.4155 46.8054 16.8322 46.5781C17.2489 46.3509 17.5566 46.0384 17.7555 45.6406C17.9591 45.2429 18.0609 44.786 18.0609 44.2699C18.0609 43.7538 17.9591 43.2992 17.7555 42.9062C17.5566 42.5133 17.2465 42.2079 16.8251 41.9901C16.4084 41.7675 15.871 41.6562 15.2129 41.6562H12.7981V54H10.1632ZM22.9206 54V43.0909H25.4917V54H22.9206ZM24.2132 41.5426C23.806 41.5426 23.4557 41.4077 23.1621 41.1378C22.8685 40.8632 22.7218 40.5341 22.7218 40.1506C22.7218 39.7623 22.8685 39.4332 23.1621 39.1634C23.4557 38.8887 23.806 38.7514 24.2132 38.7514C24.6252 38.7514 24.9756 38.8887 25.2644 39.1634C25.5579 39.4332 25.7047 39.7623 25.7047 40.1506C25.7047 40.5341 25.5579 40.8632 25.2644 41.1378C24.9756 41.4077 24.6252 41.5426 24.2132 41.5426ZM30.2377 43.0909L32.4395 47.1179L34.6767 43.0909H37.3968L34.1085 48.5455L37.4537 54H34.7477L32.4395 50.0724L30.1525 54H27.4252L30.7491 48.5455L27.5105 43.0909H30.2377ZM43.8049 54.2131C42.7111 54.2131 41.7665 53.9858 40.9711 53.5312C40.1803 53.072 39.5719 52.4233 39.1458 51.5852C38.7196 50.7424 38.5066 49.7505 38.5066 48.6094C38.5066 47.4872 38.7196 46.5024 39.1458 45.6548C39.5766 44.8026 40.178 44.1397 40.9498 43.6662C41.7215 43.188 42.6283 42.9489 43.6699 42.9489C44.3423 42.9489 44.9767 43.0578 45.5733 43.2756C46.1747 43.4886 46.705 43.8201 47.1642 44.2699C47.6283 44.7197 47.9928 45.2926 48.258 45.9886C48.5231 46.6799 48.6557 47.5038 48.6557 48.4602V49.2486H39.714V47.5156H46.1912C46.1865 47.0232 46.08 46.5852 45.8716 46.2017C45.6633 45.8134 45.3721 45.508 44.998 45.2855C44.6287 45.063 44.1979 44.9517 43.7054 44.9517C43.1799 44.9517 42.7182 45.0795 42.3205 45.3352C41.9228 45.5862 41.6126 45.9176 41.3901 46.3295C41.1723 46.7367 41.061 47.1842 41.0563 47.6719V49.1847C41.0563 49.8191 41.1723 50.3636 41.4043 50.8182C41.6363 51.268 41.9606 51.6136 42.3773 51.8551C42.794 52.0919 43.2817 52.2102 43.8404 52.2102C44.2144 52.2102 44.553 52.1581 44.856 52.054C45.159 51.9451 45.4218 51.7865 45.6444 51.5781C45.8669 51.3698 46.035 51.1117 46.1486 50.804L48.5492 51.0739C48.3977 51.7083 48.1088 52.2623 47.6827 52.7358C47.2613 53.2045 46.7215 53.5691 46.0634 53.8295C45.4052 54.0852 44.6524 54.2131 43.8049 54.2131ZM53.4018 39.4545V54H50.8308V39.4545H53.4018ZM62.9881 54H60.1756L65.2963 39.4545H68.5492L73.677 54H70.8645L66.9796 42.4375H66.8659L62.9881 54ZM63.0804 48.2969H70.7509V50.4134H63.0804V48.2969ZM75.4792 54V43.0909H77.9721V44.9091H78.0858C78.2846 44.2794 78.6255 43.794 79.1085 43.4531C79.5962 43.1075 80.1525 42.9347 80.7775 42.9347C80.9196 42.9347 81.0782 42.9418 81.2534 42.956C81.4333 42.9654 81.5824 42.982 81.7008 43.0057V45.3707C81.5919 45.3329 81.4191 45.2997 81.1824 45.2713C80.9503 45.2382 80.7254 45.2216 80.5076 45.2216C80.0389 45.2216 79.6175 45.3234 79.2434 45.527C78.8741 45.7259 78.5829 46.0028 78.3699 46.358C78.1568 46.7131 78.0502 47.1226 78.0502 47.5866V54H75.4792ZM89.4423 43.0909V45.0795H83.171V43.0909H89.4423ZM84.7193 40.4773H87.2903V50.7188C87.2903 51.0644 87.3424 51.3295 87.4466 51.5142C87.5555 51.6941 87.6975 51.8172 87.8727 51.8835C88.0479 51.9498 88.242 51.983 88.4551 51.983C88.6161 51.983 88.7628 51.9711 88.8954 51.9474C89.0327 51.9238 89.1369 51.9025 89.2079 51.8835L89.6412 53.8935C89.5038 53.9408 89.3074 53.9929 89.0517 54.0497C88.8007 54.1065 88.493 54.1397 88.1284 54.1491C87.4844 54.1681 86.9044 54.071 86.3883 53.858C85.8722 53.6402 85.4627 53.304 85.1596 52.8494C84.8613 52.3949 84.7145 51.8267 84.7193 51.1449V40.4773Z" fill="white" style="mix-blend-mode:lighten" shape-rendering="crispEdges"/>
</g>
<defs>
<filter id="filter0_d_28_13" x="0" y="2" width="98" height="98" filterUnits="userSpaceOnUse" color-interpolation-filters="sRGB">
<feFlood flood-opacity="0" result="BackgroundImageFix"/>
<feColorMatrix in="SourceAlpha" type="matrix" values="0 0 0 0 0 0 0 0 0 0 0 0 0 0 0 0 0 0 127 0" result="hardAlpha"/>
<feOffset dy="4"/>
<feGaussianBlur stdDeviation="2"/>
<feComposite in2="hardAlpha" operator="out"/>
<feColorMatrix type="matrix" values="0 0 0 0 0 0 0 0 0 0 0 0 0 0 0 0 0 0 0.25 0"/>
<feBlend mode="normal" in2="BackgroundImageFix" result="effect1_dropShadow_28_13"/>
<feBlend mode="normal" in="SourceGraphic" in2="effect1_dropShadow_28_13" result="shape"/>
</filter>
<filter id="filter1_d_28_13" x="4.16321" y="32.7514" width="93.4779" height="29.4617" filterUnits="userSpaceOnUse" color-interpolation-filters="sRGB">
<feFlood flood-opacity="0" result="BackgroundImageFix"/>
<feColorMatrix in="SourceAlpha" type="matrix" values="0 0 0 0 0 0 0 0 0 0 0 0 0 0 0 0 0 0 127 0" result="hardAlpha"/>
<feOffset dx="1" dy="1"/>
<feGaussianBlur stdDeviation="3.5"/>
<feComposite in2="hardAlpha" operator="out"/>
<feColorMatrix type="matrix" values="0 0 0 0 0.203922 0 0 0 0 0.827451 0 0 0 0 0.6 0 0 0 1 0"/>
<feBlend mode="normal" in2="BackgroundImageFix" result="effect1_dropShadow_28_13"/>
<feBlend mode="normal" in="SourceGraphic" in2="effect1_dropShadow_28_13" result="shape"/>
</filter>
<linearGradient id="paint0_linear_28_13" x1="-33.8" y1="14.6" x2="49" y2="92" gradientUnits="userSpaceOnUse">
<stop stop-color="#00FFD1"/>
<stop offset="1" stop-color="#4D9A70"/>
</linearGradient>
</defs>
</svg>
